<mxfile host="app.diagrams.net" modified="2022-10-22T08:37:18.250Z" agent="5.0 (Macintosh; Intel Mac OS X 10_15_7) AppleWebKit/537.36 (KHTML, like Gecko) Chrome/106.0.0.0 Safari/537.36" etag="iVXICX5HF6YOfgVVrZu2" version="20.3.6" type="github">
  <diagram id="g2kacyhnBUKmaX0Fz79K" name="페이지-1">
    <mxGraphModel dx="1234" dy="733" grid="1" gridSize="10" guides="1" tooltips="1" connect="1" arrows="1" fold="1" page="1" pageScale="1" pageWidth="1169" pageHeight="1654" math="0" shadow="0">
      <root>
        <mxCell id="0" />
        <mxCell id="1" parent="0" />
        <mxCell id="V6kUpq0pL26NRdK2O4D--78" value="" style="ellipse;whiteSpace=wrap;html=1;aspect=fixed;" vertex="1" parent="1">
          <mxGeometry x="539" y="1260" width="280" height="280" as="geometry" />
        </mxCell>
        <mxCell id="V6kUpq0pL26NRdK2O4D--77" value="" style="ellipse;whiteSpace=wrap;html=1;aspect=fixed;" vertex="1" parent="1">
          <mxGeometry x="620" y="1310" width="180" height="180" as="geometry" />
        </mxCell>
        <mxCell id="V6kUpq0pL26NRdK2O4D--6" value="Component" style="swimlane;fontStyle=1;align=center;verticalAlign=top;childLayout=stackLayout;horizontal=1;startSize=26;horizontalStack=0;resizeParent=1;resizeParentMax=0;resizeLast=0;collapsible=1;marginBottom=0;" vertex="1" parent="1">
          <mxGeometry x="279" y="80" width="160" height="80" as="geometry" />
        </mxCell>
        <mxCell id="V6kUpq0pL26NRdK2O4D--8" value="" style="line;strokeWidth=1;fillColor=none;align=left;verticalAlign=middle;spacingTop=-1;spacingLeft=3;spacingRight=3;rotatable=0;labelPosition=right;points=[];portConstraint=eastwest;strokeColor=inherit;" vertex="1" parent="V6kUpq0pL26NRdK2O4D--6">
          <mxGeometry y="26" width="160" height="8" as="geometry" />
        </mxCell>
        <mxCell id="V6kUpq0pL26NRdK2O4D--9" value="methodA()&#xa;methodB()&#xa;" style="text;strokeColor=none;fillColor=none;align=left;verticalAlign=top;spacingLeft=4;spacingRight=4;overflow=hidden;rotatable=0;points=[[0,0.5],[1,0.5]];portConstraint=eastwest;" vertex="1" parent="V6kUpq0pL26NRdK2O4D--6">
          <mxGeometry y="34" width="160" height="46" as="geometry" />
        </mxCell>
        <mxCell id="V6kUpq0pL26NRdK2O4D--27" style="edgeStyle=orthogonalEdgeStyle;rounded=0;orthogonalLoop=1;jettySize=auto;html=1;" edge="1" parent="1" source="V6kUpq0pL26NRdK2O4D--10" target="V6kUpq0pL26NRdK2O4D--6">
          <mxGeometry relative="1" as="geometry" />
        </mxCell>
        <mxCell id="V6kUpq0pL26NRdK2O4D--10" value="ConcreteComponent" style="swimlane;fontStyle=1;align=center;verticalAlign=top;childLayout=stackLayout;horizontal=1;startSize=26;horizontalStack=0;resizeParent=1;resizeParentMax=0;resizeLast=0;collapsible=1;marginBottom=0;" vertex="1" parent="1">
          <mxGeometry x="159" y="230" width="160" height="80" as="geometry" />
        </mxCell>
        <mxCell id="V6kUpq0pL26NRdK2O4D--11" value="" style="line;strokeWidth=1;fillColor=none;align=left;verticalAlign=middle;spacingTop=-1;spacingLeft=3;spacingRight=3;rotatable=0;labelPosition=right;points=[];portConstraint=eastwest;strokeColor=inherit;" vertex="1" parent="V6kUpq0pL26NRdK2O4D--10">
          <mxGeometry y="26" width="160" height="8" as="geometry" />
        </mxCell>
        <mxCell id="V6kUpq0pL26NRdK2O4D--12" value="methodA()&#xa;methodB()&#xa;" style="text;strokeColor=none;fillColor=none;align=left;verticalAlign=top;spacingLeft=4;spacingRight=4;overflow=hidden;rotatable=0;points=[[0,0.5],[1,0.5]];portConstraint=eastwest;" vertex="1" parent="V6kUpq0pL26NRdK2O4D--10">
          <mxGeometry y="34" width="160" height="46" as="geometry" />
        </mxCell>
        <mxCell id="V6kUpq0pL26NRdK2O4D--28" style="edgeStyle=orthogonalEdgeStyle;rounded=0;orthogonalLoop=1;jettySize=auto;html=1;" edge="1" parent="1" source="V6kUpq0pL26NRdK2O4D--16" target="V6kUpq0pL26NRdK2O4D--6">
          <mxGeometry relative="1" as="geometry" />
        </mxCell>
        <mxCell id="V6kUpq0pL26NRdK2O4D--31" style="edgeStyle=orthogonalEdgeStyle;rounded=0;orthogonalLoop=1;jettySize=auto;html=1;entryX=1.002;entryY=0.117;entryDx=0;entryDy=0;entryPerimeter=0;dashed=1;endArrow=block;endFill=0;" edge="1" parent="1" source="V6kUpq0pL26NRdK2O4D--16" target="V6kUpq0pL26NRdK2O4D--6">
          <mxGeometry relative="1" as="geometry">
            <mxPoint x="589" y="98.66666666666667" as="targetPoint" />
            <Array as="points">
              <mxPoint x="599" y="280" />
              <mxPoint x="599" y="89" />
            </Array>
          </mxGeometry>
        </mxCell>
        <mxCell id="V6kUpq0pL26NRdK2O4D--16" value="Decorator" style="swimlane;fontStyle=1;align=center;verticalAlign=top;childLayout=stackLayout;horizontal=1;startSize=26;horizontalStack=0;resizeParent=1;resizeParentMax=0;resizeLast=0;collapsible=1;marginBottom=0;" vertex="1" parent="1">
          <mxGeometry x="409" y="230" width="160" height="100" as="geometry" />
        </mxCell>
        <mxCell id="V6kUpq0pL26NRdK2O4D--17" value="Component wrappedObj" style="text;strokeColor=none;fillColor=none;align=left;verticalAlign=top;spacingLeft=4;spacingRight=4;overflow=hidden;rotatable=0;points=[[0,0.5],[1,0.5]];portConstraint=eastwest;" vertex="1" parent="V6kUpq0pL26NRdK2O4D--16">
          <mxGeometry y="26" width="160" height="26" as="geometry" />
        </mxCell>
        <mxCell id="V6kUpq0pL26NRdK2O4D--18" value="" style="line;strokeWidth=1;fillColor=none;align=left;verticalAlign=middle;spacingTop=-1;spacingLeft=3;spacingRight=3;rotatable=0;labelPosition=right;points=[];portConstraint=eastwest;strokeColor=inherit;" vertex="1" parent="V6kUpq0pL26NRdK2O4D--16">
          <mxGeometry y="52" width="160" height="8" as="geometry" />
        </mxCell>
        <mxCell id="V6kUpq0pL26NRdK2O4D--19" value="methodA()&#xa;methodB()&#xa;" style="text;strokeColor=none;fillColor=none;align=left;verticalAlign=top;spacingLeft=4;spacingRight=4;overflow=hidden;rotatable=0;points=[[0,0.5],[1,0.5]];portConstraint=eastwest;" vertex="1" parent="V6kUpq0pL26NRdK2O4D--16">
          <mxGeometry y="60" width="160" height="40" as="geometry" />
        </mxCell>
        <mxCell id="V6kUpq0pL26NRdK2O4D--29" style="edgeStyle=orthogonalEdgeStyle;rounded=0;orthogonalLoop=1;jettySize=auto;html=1;" edge="1" parent="1" source="V6kUpq0pL26NRdK2O4D--20" target="V6kUpq0pL26NRdK2O4D--16">
          <mxGeometry relative="1" as="geometry" />
        </mxCell>
        <mxCell id="V6kUpq0pL26NRdK2O4D--20" value="ConcreteDecoratorA" style="swimlane;fontStyle=1;align=center;verticalAlign=top;childLayout=stackLayout;horizontal=1;startSize=26;horizontalStack=0;resizeParent=1;resizeParentMax=0;resizeLast=0;collapsible=1;marginBottom=0;" vertex="1" parent="1">
          <mxGeometry x="319" y="400" width="160" height="100" as="geometry" />
        </mxCell>
        <mxCell id="V6kUpq0pL26NRdK2O4D--21" value="" style="line;strokeWidth=1;fillColor=none;align=left;verticalAlign=middle;spacingTop=-1;spacingLeft=3;spacingRight=3;rotatable=0;labelPosition=right;points=[];portConstraint=eastwest;strokeColor=inherit;" vertex="1" parent="V6kUpq0pL26NRdK2O4D--20">
          <mxGeometry y="26" width="160" height="8" as="geometry" />
        </mxCell>
        <mxCell id="V6kUpq0pL26NRdK2O4D--22" value="methodA()&#xa;methodB()&#xa;newBehavior()&#xa;// 기타 메소드" style="text;strokeColor=none;fillColor=none;align=left;verticalAlign=top;spacingLeft=4;spacingRight=4;overflow=hidden;rotatable=0;points=[[0,0.5],[1,0.5]];portConstraint=eastwest;" vertex="1" parent="V6kUpq0pL26NRdK2O4D--20">
          <mxGeometry y="34" width="160" height="66" as="geometry" />
        </mxCell>
        <mxCell id="V6kUpq0pL26NRdK2O4D--30" style="edgeStyle=orthogonalEdgeStyle;rounded=0;orthogonalLoop=1;jettySize=auto;html=1;" edge="1" parent="1" source="V6kUpq0pL26NRdK2O4D--23" target="V6kUpq0pL26NRdK2O4D--16">
          <mxGeometry relative="1" as="geometry" />
        </mxCell>
        <mxCell id="V6kUpq0pL26NRdK2O4D--23" value="ConcreteDecoratorB" style="swimlane;fontStyle=1;align=center;verticalAlign=top;childLayout=stackLayout;horizontal=1;startSize=26;horizontalStack=0;resizeParent=1;resizeParentMax=0;resizeLast=0;collapsible=1;marginBottom=0;" vertex="1" parent="1">
          <mxGeometry x="509" y="400" width="160" height="100" as="geometry" />
        </mxCell>
        <mxCell id="V6kUpq0pL26NRdK2O4D--24" value="Object newState" style="text;strokeColor=none;fillColor=none;align=left;verticalAlign=top;spacingLeft=4;spacingRight=4;overflow=hidden;rotatable=0;points=[[0,0.5],[1,0.5]];portConstraint=eastwest;" vertex="1" parent="V6kUpq0pL26NRdK2O4D--23">
          <mxGeometry y="26" width="160" height="26" as="geometry" />
        </mxCell>
        <mxCell id="V6kUpq0pL26NRdK2O4D--25" value="" style="line;strokeWidth=1;fillColor=none;align=left;verticalAlign=middle;spacingTop=-1;spacingLeft=3;spacingRight=3;rotatable=0;labelPosition=right;points=[];portConstraint=eastwest;strokeColor=inherit;" vertex="1" parent="V6kUpq0pL26NRdK2O4D--23">
          <mxGeometry y="52" width="160" height="8" as="geometry" />
        </mxCell>
        <mxCell id="V6kUpq0pL26NRdK2O4D--26" value="methodA()&#xa;methodB()&#xa;" style="text;strokeColor=none;fillColor=none;align=left;verticalAlign=top;spacingLeft=4;spacingRight=4;overflow=hidden;rotatable=0;points=[[0,0.5],[1,0.5]];portConstraint=eastwest;" vertex="1" parent="V6kUpq0pL26NRdK2O4D--23">
          <mxGeometry y="60" width="160" height="40" as="geometry" />
        </mxCell>
        <mxCell id="V6kUpq0pL26NRdK2O4D--32" value="구성요소" style="text;html=1;strokeColor=none;fillColor=none;align=center;verticalAlign=middle;whiteSpace=wrap;rounded=0;" vertex="1" parent="1">
          <mxGeometry x="599" y="70" width="60" height="30" as="geometry" />
        </mxCell>
        <mxCell id="V6kUpq0pL26NRdK2O4D--33" value="기본 기능 구현 클래스" style="text;html=1;strokeColor=none;fillColor=none;align=center;verticalAlign=middle;whiteSpace=wrap;rounded=0;" vertex="1" parent="1">
          <mxGeometry x="179" y="310" width="110" height="30" as="geometry" />
        </mxCell>
        <mxCell id="V6kUpq0pL26NRdK2O4D--34" value="데코레이터" style="text;html=1;strokeColor=none;fillColor=none;align=center;verticalAlign=middle;whiteSpace=wrap;rounded=0;" vertex="1" parent="1">
          <mxGeometry x="549" y="290" width="110" height="30" as="geometry" />
        </mxCell>
        <mxCell id="V6kUpq0pL26NRdK2O4D--35" value="데코레이터 구현 클래스 A" style="text;html=1;strokeColor=none;fillColor=none;align=center;verticalAlign=middle;whiteSpace=wrap;rounded=0;" vertex="1" parent="1">
          <mxGeometry x="329" y="500" width="140" height="30" as="geometry" />
        </mxCell>
        <mxCell id="V6kUpq0pL26NRdK2O4D--36" value="데코레이터 구현 클래스 B" style="text;html=1;strokeColor=none;fillColor=none;align=center;verticalAlign=middle;whiteSpace=wrap;rounded=0;" vertex="1" parent="1">
          <mxGeometry x="519" y="500" width="140" height="30" as="geometry" />
        </mxCell>
        <mxCell id="V6kUpq0pL26NRdK2O4D--37" value="Beverage" style="swimlane;fontStyle=1;align=center;verticalAlign=top;childLayout=stackLayout;horizontal=1;startSize=26;horizontalStack=0;resizeParent=1;resizeParentMax=0;resizeLast=0;collapsible=1;marginBottom=0;" vertex="1" parent="1">
          <mxGeometry x="320" y="660" width="160" height="100" as="geometry" />
        </mxCell>
        <mxCell id="V6kUpq0pL26NRdK2O4D--38" value="description" style="text;strokeColor=none;fillColor=none;align=left;verticalAlign=top;spacingLeft=4;spacingRight=4;overflow=hidden;rotatable=0;points=[[0,0.5],[1,0.5]];portConstraint=eastwest;" vertex="1" parent="V6kUpq0pL26NRdK2O4D--37">
          <mxGeometry y="26" width="160" height="26" as="geometry" />
        </mxCell>
        <mxCell id="V6kUpq0pL26NRdK2O4D--39" value="" style="line;strokeWidth=1;fillColor=none;align=left;verticalAlign=middle;spacingTop=-1;spacingLeft=3;spacingRight=3;rotatable=0;labelPosition=right;points=[];portConstraint=eastwest;strokeColor=inherit;" vertex="1" parent="V6kUpq0pL26NRdK2O4D--37">
          <mxGeometry y="52" width="160" height="8" as="geometry" />
        </mxCell>
        <mxCell id="V6kUpq0pL26NRdK2O4D--40" value="getDescription()&#xa;cost()" style="text;strokeColor=none;fillColor=none;align=left;verticalAlign=top;spacingLeft=4;spacingRight=4;overflow=hidden;rotatable=0;points=[[0,0.5],[1,0.5]];portConstraint=eastwest;" vertex="1" parent="V6kUpq0pL26NRdK2O4D--37">
          <mxGeometry y="60" width="160" height="40" as="geometry" />
        </mxCell>
        <mxCell id="V6kUpq0pL26NRdK2O4D--53" style="rounded=0;orthogonalLoop=1;jettySize=auto;html=1;endArrow=block;endFill=1;edgeStyle=orthogonalEdgeStyle;" edge="1" parent="1" source="V6kUpq0pL26NRdK2O4D--41">
          <mxGeometry relative="1" as="geometry">
            <mxPoint x="400" y="760" as="targetPoint" />
            <Array as="points">
              <mxPoint x="120" y="830" />
              <mxPoint x="400" y="830" />
            </Array>
          </mxGeometry>
        </mxCell>
        <mxCell id="V6kUpq0pL26NRdK2O4D--41" value="HouseBlend" style="swimlane;fontStyle=1;align=center;verticalAlign=top;childLayout=stackLayout;horizontal=1;startSize=26;horizontalStack=0;resizeParent=1;resizeParentMax=0;resizeLast=0;collapsible=1;marginBottom=0;" vertex="1" parent="1">
          <mxGeometry x="40" y="870" width="160" height="60" as="geometry" />
        </mxCell>
        <mxCell id="V6kUpq0pL26NRdK2O4D--42" value="" style="line;strokeWidth=1;fillColor=none;align=left;verticalAlign=middle;spacingTop=-1;spacingLeft=3;spacingRight=3;rotatable=0;labelPosition=right;points=[];portConstraint=eastwest;strokeColor=inherit;" vertex="1" parent="V6kUpq0pL26NRdK2O4D--41">
          <mxGeometry y="26" width="160" height="8" as="geometry" />
        </mxCell>
        <mxCell id="V6kUpq0pL26NRdK2O4D--43" value="cost()" style="text;strokeColor=none;fillColor=none;align=left;verticalAlign=top;spacingLeft=4;spacingRight=4;overflow=hidden;rotatable=0;points=[[0,0.5],[1,0.5]];portConstraint=eastwest;" vertex="1" parent="V6kUpq0pL26NRdK2O4D--41">
          <mxGeometry y="34" width="160" height="26" as="geometry" />
        </mxCell>
        <mxCell id="V6kUpq0pL26NRdK2O4D--56" style="edgeStyle=orthogonalEdgeStyle;rounded=0;orthogonalLoop=1;jettySize=auto;html=1;endArrow=block;endFill=1;" edge="1" parent="1" source="V6kUpq0pL26NRdK2O4D--50" target="V6kUpq0pL26NRdK2O4D--37">
          <mxGeometry relative="1" as="geometry">
            <Array as="points">
              <mxPoint x="300" y="830" />
              <mxPoint x="400" y="830" />
            </Array>
          </mxGeometry>
        </mxCell>
        <mxCell id="V6kUpq0pL26NRdK2O4D--50" value="Decaf" style="swimlane;fontStyle=1;align=center;verticalAlign=top;childLayout=stackLayout;horizontal=1;startSize=26;horizontalStack=0;resizeParent=1;resizeParentMax=0;resizeLast=0;collapsible=1;marginBottom=0;" vertex="1" parent="1">
          <mxGeometry x="220" y="870" width="160" height="60" as="geometry" />
        </mxCell>
        <mxCell id="V6kUpq0pL26NRdK2O4D--51" value="" style="line;strokeWidth=1;fillColor=none;align=left;verticalAlign=middle;spacingTop=-1;spacingLeft=3;spacingRight=3;rotatable=0;labelPosition=right;points=[];portConstraint=eastwest;strokeColor=inherit;" vertex="1" parent="V6kUpq0pL26NRdK2O4D--50">
          <mxGeometry y="26" width="160" height="8" as="geometry" />
        </mxCell>
        <mxCell id="V6kUpq0pL26NRdK2O4D--52" value="cost()" style="text;strokeColor=none;fillColor=none;align=left;verticalAlign=top;spacingLeft=4;spacingRight=4;overflow=hidden;rotatable=0;points=[[0,0.5],[1,0.5]];portConstraint=eastwest;" vertex="1" parent="V6kUpq0pL26NRdK2O4D--50">
          <mxGeometry y="34" width="160" height="26" as="geometry" />
        </mxCell>
        <mxCell id="V6kUpq0pL26NRdK2O4D--70" style="edgeStyle=orthogonalEdgeStyle;rounded=0;orthogonalLoop=1;jettySize=auto;html=1;endArrow=block;endFill=1;" edge="1" parent="1" source="V6kUpq0pL26NRdK2O4D--57" target="V6kUpq0pL26NRdK2O4D--37">
          <mxGeometry relative="1" as="geometry" />
        </mxCell>
        <mxCell id="V6kUpq0pL26NRdK2O4D--57" value="CondimentDecorator" style="swimlane;fontStyle=1;align=center;verticalAlign=top;childLayout=stackLayout;horizontal=1;startSize=26;horizontalStack=0;resizeParent=1;resizeParentMax=0;resizeLast=0;collapsible=1;marginBottom=0;" vertex="1" parent="1">
          <mxGeometry x="470" y="870" width="160" height="60" as="geometry" />
        </mxCell>
        <mxCell id="V6kUpq0pL26NRdK2O4D--58" value="" style="line;strokeWidth=1;fillColor=none;align=left;verticalAlign=middle;spacingTop=-1;spacingLeft=3;spacingRight=3;rotatable=0;labelPosition=right;points=[];portConstraint=eastwest;strokeColor=inherit;" vertex="1" parent="V6kUpq0pL26NRdK2O4D--57">
          <mxGeometry y="26" width="160" height="8" as="geometry" />
        </mxCell>
        <mxCell id="V6kUpq0pL26NRdK2O4D--59" value="getDescription()" style="text;strokeColor=none;fillColor=none;align=left;verticalAlign=top;spacingLeft=4;spacingRight=4;overflow=hidden;rotatable=0;points=[[0,0.5],[1,0.5]];portConstraint=eastwest;" vertex="1" parent="V6kUpq0pL26NRdK2O4D--57">
          <mxGeometry y="34" width="160" height="26" as="geometry" />
        </mxCell>
        <mxCell id="V6kUpq0pL26NRdK2O4D--68" style="edgeStyle=orthogonalEdgeStyle;rounded=0;orthogonalLoop=1;jettySize=auto;html=1;endArrow=block;endFill=1;" edge="1" parent="1" source="V6kUpq0pL26NRdK2O4D--60" target="V6kUpq0pL26NRdK2O4D--57">
          <mxGeometry relative="1" as="geometry" />
        </mxCell>
        <mxCell id="V6kUpq0pL26NRdK2O4D--60" value="Milk" style="swimlane;fontStyle=1;align=center;verticalAlign=top;childLayout=stackLayout;horizontal=1;startSize=26;horizontalStack=0;resizeParent=1;resizeParentMax=0;resizeLast=0;collapsible=1;marginBottom=0;" vertex="1" parent="1">
          <mxGeometry x="430" y="1000" width="160" height="100" as="geometry" />
        </mxCell>
        <mxCell id="V6kUpq0pL26NRdK2O4D--61" value="Beverage beverage" style="text;strokeColor=none;fillColor=none;align=left;verticalAlign=top;spacingLeft=4;spacingRight=4;overflow=hidden;rotatable=0;points=[[0,0.5],[1,0.5]];portConstraint=eastwest;" vertex="1" parent="V6kUpq0pL26NRdK2O4D--60">
          <mxGeometry y="26" width="160" height="26" as="geometry" />
        </mxCell>
        <mxCell id="V6kUpq0pL26NRdK2O4D--62" value="" style="line;strokeWidth=1;fillColor=none;align=left;verticalAlign=middle;spacingTop=-1;spacingLeft=3;spacingRight=3;rotatable=0;labelPosition=right;points=[];portConstraint=eastwest;strokeColor=inherit;" vertex="1" parent="V6kUpq0pL26NRdK2O4D--60">
          <mxGeometry y="52" width="160" height="8" as="geometry" />
        </mxCell>
        <mxCell id="V6kUpq0pL26NRdK2O4D--63" value="cost()&#xa;getDescription()" style="text;strokeColor=none;fillColor=none;align=left;verticalAlign=top;spacingLeft=4;spacingRight=4;overflow=hidden;rotatable=0;points=[[0,0.5],[1,0.5]];portConstraint=eastwest;" vertex="1" parent="V6kUpq0pL26NRdK2O4D--60">
          <mxGeometry y="60" width="160" height="40" as="geometry" />
        </mxCell>
        <mxCell id="V6kUpq0pL26NRdK2O4D--69" style="edgeStyle=orthogonalEdgeStyle;rounded=0;orthogonalLoop=1;jettySize=auto;html=1;endArrow=block;endFill=1;" edge="1" parent="1" source="V6kUpq0pL26NRdK2O4D--64" target="V6kUpq0pL26NRdK2O4D--57">
          <mxGeometry relative="1" as="geometry" />
        </mxCell>
        <mxCell id="V6kUpq0pL26NRdK2O4D--64" value="Mocha" style="swimlane;fontStyle=1;align=center;verticalAlign=top;childLayout=stackLayout;horizontal=1;startSize=26;horizontalStack=0;resizeParent=1;resizeParentMax=0;resizeLast=0;collapsible=1;marginBottom=0;" vertex="1" parent="1">
          <mxGeometry x="610" y="1000" width="160" height="100" as="geometry" />
        </mxCell>
        <mxCell id="V6kUpq0pL26NRdK2O4D--65" value="Beverage beverage" style="text;strokeColor=none;fillColor=none;align=left;verticalAlign=top;spacingLeft=4;spacingRight=4;overflow=hidden;rotatable=0;points=[[0,0.5],[1,0.5]];portConstraint=eastwest;" vertex="1" parent="V6kUpq0pL26NRdK2O4D--64">
          <mxGeometry y="26" width="160" height="26" as="geometry" />
        </mxCell>
        <mxCell id="V6kUpq0pL26NRdK2O4D--66" value="" style="line;strokeWidth=1;fillColor=none;align=left;verticalAlign=middle;spacingTop=-1;spacingLeft=3;spacingRight=3;rotatable=0;labelPosition=right;points=[];portConstraint=eastwest;strokeColor=inherit;" vertex="1" parent="V6kUpq0pL26NRdK2O4D--64">
          <mxGeometry y="52" width="160" height="8" as="geometry" />
        </mxCell>
        <mxCell id="V6kUpq0pL26NRdK2O4D--67" value="cost()&#xa;getDescription()" style="text;strokeColor=none;fillColor=none;align=left;verticalAlign=top;spacingLeft=4;spacingRight=4;overflow=hidden;rotatable=0;points=[[0,0.5],[1,0.5]];portConstraint=eastwest;" vertex="1" parent="V6kUpq0pL26NRdK2O4D--64">
          <mxGeometry y="60" width="160" height="40" as="geometry" />
        </mxCell>
        <mxCell id="V6kUpq0pL26NRdK2O4D--71" value="기본적으로 바탕이 되는 커피 베이스" style="text;html=1;strokeColor=none;fillColor=none;align=center;verticalAlign=middle;whiteSpace=wrap;rounded=0;" vertex="1" parent="1">
          <mxGeometry x="110" y="940" width="210" height="30" as="geometry" />
        </mxCell>
        <mxCell id="V6kUpq0pL26NRdK2O4D--72" value="각각의 첨가물을 나타내는 데코레이터&lt;br&gt;다른 Component 를 꾸며줘야 하기 때문에 Beverage 를 가지고 있고, 이걸 꾸며주는 역할" style="text;html=1;strokeColor=none;fillColor=none;align=center;verticalAlign=middle;whiteSpace=wrap;rounded=0;" vertex="1" parent="1">
          <mxGeometry x="490" y="1120" width="230" height="30" as="geometry" />
        </mxCell>
        <mxCell id="V6kUpq0pL26NRdK2O4D--76" value="" style="ellipse;whiteSpace=wrap;html=1;aspect=fixed;" vertex="1" parent="1">
          <mxGeometry x="690" y="1360" width="80" height="80" as="geometry" />
        </mxCell>
        <mxCell id="V6kUpq0pL26NRdK2O4D--79" value="" style="ellipse;whiteSpace=wrap;html=1;aspect=fixed;" vertex="1" parent="1">
          <mxGeometry x="430" y="1230" width="280" height="280" as="geometry" />
        </mxCell>
      </root>
    </mxGraphModel>
  </diagram>
</mxfile>
